<svg width="600" height="417" viewBox="0 0 600 417" fill="none" xmlns="http://www.w3.org/2000/svg">
<path d="M308.31 385.285L532.935 273.067C534.554 272.291 535.917 271.128 536.882 269.699C537.846 268.271 538.377 266.63 538.418 264.948C538.46 263.265 538.01 261.604 537.117 260.137C536.223 258.669 534.919 257.45 533.34 256.607L315.585 136.574C313.919 135.662 312.022 135.17 310.085 135.145C308.148 135.121 306.237 135.566 304.545 136.436L66.93 259.138C65.3133 259.943 63.9627 261.136 63.0214 262.591C62.0801 264.046 61.5832 265.709 61.5832 267.403C61.5832 269.097 62.0801 270.76 63.0214 272.215C63.9627 273.67 65.3133 274.863 66.93 275.668L278.805 385.091C283.309 387.407 288.374 388.639 293.531 388.672C298.687 388.706 303.77 387.541 308.31 385.285V385.285Z" fill="#00275E"/>
<path d="M270.285 218.611C270.285 218.611 224.85 240.977 214.095 294.341C214.095 294.341 258.345 302.985 317.595 257.797" fill="#EB773A"/>
<path d="M269.715 225.416C269.715 225.416 250.335 241.447 244.875 252.762C239.415 264.076 232.29 280.633 232.29 280.633C232.29 280.633 266.415 283.317 298.5 265.211C330.585 247.105 300 213.244 269.715 225.416Z" fill="#FFAE46"/>
<path d="M288.975 219.787C287.805 221.599 267.84 231.973 264.105 246.939L270.615 242.388C270.615 242.388 259.545 256.69 254.85 264.92C254.85 264.92 281.85 255.003 281.01 255.597L273.375 260.937C273.375 260.937 293.91 260.535 307.875 249.027C321.84 237.519 302.64 217.449 302.64 217.449L288.975 219.787Z" fill="#FAD374"/>
<path d="M349.23 219.648C349.23 219.648 345.705 240.742 338.16 245.929C330.615 251.116 306.12 268.309 306.12 268.309L302.055 263.357C302.055 263.357 318.945 235.597 321.93 223.342C324.915 211.087 349.23 219.648 349.23 219.648Z" fill="#68E1FD"/>
<path opacity="0.61" d="M349.23 219.648C349.23 219.648 345.705 240.742 338.16 245.929C330.615 251.116 306.12 268.309 306.12 268.309L302.055 263.357C302.055 263.357 318.945 235.597 321.93 223.342C324.915 211.087 349.23 219.648 349.23 219.648Z" fill="#363636"/>
<path d="M324.84 189.965C324.84 189.965 301.86 187.393 294.33 192.732C286.8 198.071 262.29 215.112 262.29 215.112L266.355 220.063C266.355 220.063 299.91 212.58 313.515 213.258C327.12 213.936 324.84 189.965 324.84 189.965Z" fill="#68E1FD"/>
<path opacity="0.61" d="M324.84 189.965C324.84 189.965 301.86 187.393 294.33 192.732C286.8 198.071 262.29 215.112 262.29 215.112L266.355 220.063C266.355 220.063 299.91 212.58 313.515 213.258C327.12 213.936 324.84 189.965 324.84 189.965Z" fill="#363636"/>
<path d="M435.165 154.556C441.24 145.805 446.145 136.41 449.775 126.574C449.775 126.574 436.425 126.712 416.475 132.19C418.065 141.554 426.18 149.023 435.165 154.556Z" fill="#68E1FD"/>
<path d="M381.648 192.572C387.987 188.143 388.701 179.168 383.243 172.525C377.784 165.882 368.221 164.087 361.882 168.516C355.543 172.944 354.829 181.92 360.287 188.563C365.746 195.206 375.309 197.001 381.648 192.572Z" fill="#68E1FD"/>
<path d="M496.395 93.4604C496.395 93.4604 370.695 122.286 306.825 207.629C306.825 207.629 291.825 222.387 299.07 230.589C306.315 238.792 330.465 232.263 330.465 232.263C330.465 232.263 409.83 211.488 496.395 93.4604Z" fill="#68E1FD"/>
<path d="M306.825 207.629C306.825 207.629 290.985 205.858 285.825 209.496C280.665 213.134 263.745 224.918 263.745 224.918L266.55 228.335C266.55 228.335 289.68 223.176 299.04 223.646C308.4 224.116 306.825 207.629 306.825 207.629Z" fill="#68E1FD"/>
<path d="M325.905 230.852C325.905 230.852 323.475 245.39 318.27 249.014C313.065 252.637 296.19 264.436 296.19 264.436L293.4 261.061C293.4 261.061 305.04 241.932 307.095 233.48C309.15 225.029 325.905 230.852 325.905 230.852Z" fill="#68E1FD"/>
<path opacity="0.29" d="M306.825 207.629C306.825 207.629 290.985 205.858 285.825 209.496C280.665 213.134 263.745 224.918 263.745 224.918L266.55 228.335C266.55 228.335 289.68 223.176 299.04 223.646C308.4 224.116 306.825 207.629 306.825 207.629Z" fill="#363636"/>
<path opacity="0.29" d="M325.905 230.852C325.905 230.852 323.475 245.39 318.27 249.014C313.065 252.637 296.19 264.436 296.19 264.436L293.4 261.061C293.4 261.061 305.04 241.932 307.095 233.48C309.15 225.029 325.905 230.852 325.905 230.852Z" fill="#363636"/>
<path d="M435.33 114.25C435.33 114.25 434.895 133.849 457.395 141.111L444.345 154.777C444.345 154.777 416.085 140.129 420.465 120.889L435.33 114.25Z" fill="#68E1FD"/>
<path d="M354.615 159.687C354.615 159.687 354.87 192.884 388.44 202.331L363.51 218.044C363.51 218.044 327.51 206.522 334.185 176.991L354.615 159.687Z" fill="#68E1FD"/>
<path d="M415.293 154.901C417.525 153.342 417.964 150.409 416.273 148.351C414.582 146.293 411.402 145.889 409.17 147.448C406.938 149.008 406.499 151.94 408.19 153.998C409.881 156.056 413.062 156.461 415.293 154.901Z" fill="#68E1FD"/>
<path d="M396.882 179.389C402.727 175.347 403.912 167.7 399.528 162.31C395.144 156.92 386.851 155.827 381.006 159.87C375.161 163.913 373.976 171.559 378.36 176.95C382.744 182.34 391.037 183.432 396.882 179.389Z" fill="#68E1FD"/>
<path opacity="0.61" d="M435.33 114.25C435.33 114.25 434.895 133.849 457.395 141.111L444.345 154.777C444.345 154.777 416.085 140.129 420.465 120.889L435.33 114.25Z" fill="#606060"/>
<path opacity="0.61" d="M354.615 159.687C354.615 159.687 354.87 192.884 388.44 202.331L363.51 218.044C363.51 218.044 327.51 206.522 334.185 176.991L354.615 159.687Z" fill="#606060"/>
<path opacity="0.61" d="M415.293 154.901C417.525 153.342 417.964 150.409 416.273 148.351C414.582 146.293 411.402 145.889 409.17 147.448C406.938 149.008 406.499 151.94 408.19 153.998C409.881 156.056 413.062 156.461 415.293 154.901Z" fill="#606060"/>
<path opacity="0.61" d="M396.882 179.389C402.727 175.347 403.912 167.7 399.528 162.31C395.144 156.92 386.851 155.827 381.006 159.87C375.161 163.913 373.976 171.559 378.36 176.95C382.744 182.34 391.037 183.432 396.882 179.389Z" fill="#606060"/>
<path d="M459.45 240.216C459.052 240.216 458.671 240.362 458.389 240.622C458.108 240.881 457.95 241.233 457.95 241.6C457.95 241.966 458.108 242.318 458.389 242.578C458.671 242.837 459.052 242.983 459.45 242.983C459.848 242.983 460.229 242.837 460.511 242.578C460.792 242.318 460.95 241.966 460.95 241.6C460.95 241.233 460.792 240.881 460.511 240.622C460.229 240.362 459.848 240.216 459.45 240.216Z" fill="white"/>
<path d="M383.46 295.309V296.194C383.46 296.561 383.618 296.913 383.899 297.172C384.181 297.431 384.562 297.577 384.96 297.577C385.358 297.577 385.739 297.431 386.021 297.172C386.302 296.913 386.46 296.561 386.46 296.194V295.309C386.46 294.942 386.302 294.59 386.021 294.331C385.739 294.071 385.358 293.926 384.96 293.926C384.562 293.926 384.181 294.071 383.899 294.331C383.618 294.59 383.46 294.942 383.46 295.309Z" fill="white"/>
<path d="M278.4 317.329V318.214C278.4 318.581 278.558 318.933 278.839 319.192C279.121 319.452 279.502 319.598 279.9 319.598C280.298 319.598 280.679 319.452 280.961 319.192C281.242 318.933 281.4 318.581 281.4 318.214V317.329C281.4 316.962 281.242 316.61 280.961 316.351C280.679 316.092 280.298 315.946 279.9 315.946C279.502 315.946 279.121 316.092 278.839 316.351C278.558 316.61 278.4 316.962 278.4 317.329Z" fill="white"/>
<path d="M376.365 249.899C375.967 249.899 375.586 250.044 375.304 250.304C375.023 250.563 374.865 250.915 374.865 251.282C374.865 251.649 375.023 252.001 375.304 252.26C375.586 252.519 375.967 252.665 376.365 252.665C376.763 252.665 377.144 252.519 377.426 252.26C377.707 252.001 377.865 251.649 377.865 251.282C377.865 250.915 377.707 250.563 377.426 250.304C377.144 250.044 376.763 249.899 376.365 249.899Z" fill="white"/>
<path d="M196.815 247.229C196.417 247.229 196.036 247.375 195.754 247.634C195.473 247.894 195.315 248.246 195.315 248.612C195.315 248.979 195.473 249.331 195.754 249.59C196.036 249.85 196.417 249.996 196.815 249.996C197.213 249.996 197.594 249.85 197.876 249.59C198.157 249.331 198.315 248.979 198.315 248.612C198.315 248.246 198.157 247.894 197.876 247.634C197.594 247.375 197.213 247.229 196.815 247.229Z" fill="white"/>
<path d="M129.405 251.282V252.167C129.405 252.534 129.563 252.886 129.844 253.145C130.126 253.405 130.507 253.55 130.905 253.55C131.303 253.55 131.684 253.405 131.966 253.145C132.247 252.886 132.405 252.534 132.405 252.167V251.282C132.405 250.915 132.247 250.563 131.966 250.304C131.684 250.044 131.303 249.899 130.905 249.899C130.507 249.899 130.126 250.044 129.844 250.304C129.563 250.563 129.405 250.915 129.405 251.282Z" fill="white"/>
<path d="M161.475 294.811C161.077 294.811 160.696 294.957 160.414 295.216C160.133 295.475 159.975 295.827 159.975 296.194C159.975 296.561 160.133 296.913 160.414 297.172C160.696 297.432 161.077 297.577 161.475 297.577C161.873 297.577 162.254 297.432 162.536 297.172C162.817 296.913 162.975 296.561 162.975 296.194C162.975 295.827 162.817 295.475 162.536 295.216C162.254 294.957 161.873 294.811 161.475 294.811Z" fill="white"/>
<path d="M211.14 216.426C210.742 216.426 210.361 216.571 210.079 216.831C209.798 217.09 209.64 217.442 209.64 217.809C209.64 218.176 209.798 218.528 210.079 218.787C210.361 219.046 210.742 219.192 211.14 219.192C211.538 219.192 211.919 219.046 212.201 218.787C212.482 218.528 212.64 218.176 212.64 217.809C212.64 217.442 212.482 217.09 212.201 216.831C211.919 216.571 211.538 216.426 211.14 216.426Z" fill="white"/>
<path d="M284.67 172.399C284.272 172.399 283.891 172.545 283.609 172.804C283.328 173.063 283.17 173.415 283.17 173.782C283.17 174.149 283.328 174.501 283.609 174.76C283.891 175.019 284.272 175.165 284.67 175.165C285.068 175.165 285.449 175.019 285.731 174.76C286.012 174.501 286.17 174.149 286.17 173.782C286.17 173.415 286.012 173.063 285.731 172.804C285.449 172.545 285.068 172.399 284.67 172.399Z" fill="white"/>
<path d="M329.565 345.007C329.167 345.007 328.786 345.152 328.504 345.412C328.223 345.671 328.065 346.023 328.065 346.39C328.065 346.757 328.223 347.108 328.504 347.368C328.786 347.627 329.167 347.773 329.565 347.773C329.963 347.773 330.344 347.627 330.626 347.368C330.907 347.108 331.065 346.757 331.065 346.39C331.065 346.023 330.907 345.671 330.626 345.412C330.344 345.152 329.963 345.007 329.565 345.007Z" fill="white"/>
<path d="M428.88 267.258C419.235 267.258 419.205 281.09 428.88 281.09C438.555 281.09 438.555 267.258 428.88 267.258Z" fill="#FFAE46"/>
<path d="M159.57 259.332C149.925 259.332 149.895 273.164 159.57 273.164C169.245 273.164 169.23 259.332 159.57 259.332Z" fill="#FFAE46"/>
<path d="M303.345 350.304C301.939 349.008 300.031 348.279 298.043 348.279C296.054 348.279 294.147 349.008 292.74 350.304C291.361 351.62 290.578 353.371 290.55 355.201V356.086C290.572 357.917 291.356 359.67 292.74 360.982C294.147 362.279 296.054 363.007 298.043 363.007C300.031 363.007 301.939 362.279 303.345 360.982C304.724 359.667 305.507 357.916 305.535 356.086V355.201C305.513 353.37 304.729 351.617 303.345 350.304V350.304Z" fill="#00AEE1"/>
<path d="M166.125 165.262C184.185 165.262 198.825 151.761 198.825 135.108C198.825 118.455 184.185 104.955 166.125 104.955C148.065 104.955 133.425 118.455 133.425 135.108C133.425 151.761 148.065 165.262 166.125 165.262Z" fill="#68E1FD"/>
<path d="M192.72 118.524C196.17 117.646 199.677 116.972 203.22 116.504C204.999 116.255 206.792 116.098 208.59 116.034C210.456 115.937 212.329 116.04 214.17 116.338C215.235 116.505 216.254 116.862 217.17 117.39C217.722 117.725 218.192 118.163 218.55 118.676C218.926 119.235 219.142 119.873 219.18 120.529C219.193 121.615 218.92 122.688 218.385 123.655C217.96 124.478 217.458 125.265 216.885 126.007C214.611 128.7 211.98 131.121 209.055 133.213C203.44 137.335 197.476 141.035 191.22 144.279C185.031 147.578 178.657 150.575 172.125 153.256C165.592 155.981 158.884 158.337 152.04 160.31C148.591 161.325 145.086 162.17 141.54 162.841C137.906 163.576 134.214 164.044 130.5 164.238C128.597 164.328 126.689 164.259 124.8 164.031C122.779 163.819 120.812 163.296 118.98 162.481C117.974 162.035 117.052 161.442 116.25 160.725C115.35 159.904 114.703 158.878 114.375 157.751C114.085 156.675 114.085 155.549 114.375 154.473C114.622 153.537 115 152.635 115.5 151.789C117.477 148.846 120.018 146.259 123 144.154C125.754 142.051 128.7 140.172 131.805 138.538C129.232 140.73 126.779 143.038 124.455 145.454C122.13 147.74 120.203 150.344 118.74 153.173C118.151 154.251 118.012 155.492 118.35 156.658C118.544 157.091 118.853 157.472 119.25 157.765C119.763 158.133 120.328 158.436 120.93 158.664C123.914 159.576 127.083 159.855 130.2 159.48C136.994 158.752 143.68 157.332 150.135 155.247C156.735 153.283 163.17 150.821 169.635 148.331C182.428 143.278 194.672 137.118 206.205 129.935C208.975 128.17 211.534 126.139 213.84 123.877C214.352 123.347 214.813 122.778 215.22 122.175C215.539 121.713 215.753 121.195 215.85 120.654C215.864 120.469 215.823 120.285 215.734 120.12C215.644 119.954 215.508 119.814 215.34 119.713C214.773 119.333 214.139 119.048 213.465 118.87C210.147 118.134 206.733 117.836 203.325 117.984C199.77 117.998 196.245 118.192 192.72 118.524Z" fill="#8CC63F"/>
</svg>
