<svg width="406" height="306" viewBox="0 0 406 306" fill="none" xmlns="http://www.w3.org/2000/svg">
<path d="M197.428 296.369L22.33 192.89C16.7577 189.763 11.977 184.617 17.4073 181.258L193.144 79.9809C195.783 78.3468 199.782 77.281 202.462 78.834L386.248 185.48C391.82 188.718 392.825 197.762 387.263 200.999L220.509 296.206C217.007 298.237 213.037 299.32 208.99 299.349C204.942 299.377 200.957 298.35 197.428 296.369V296.369Z" fill="#E75D48"/>
<path opacity="0.32" d="M327.124 186.089C313.767 193.874 304.226 199.111 283.682 210.835C299.232 220.284 312.823 227.217 314.569 228.252L359.229 202.877C355.605 201.02 343.75 194.31 327.124 186.089Z" fill="url(#paint0_linear_13_9)"/>
<path opacity="0.32" d="M153.265 208.287C137.167 217.676 125.667 223.979 100.911 238.108C119.648 249.496 136.03 257.86 138.142 259.098L191.937 228.557C187.623 226.283 173.342 218.193 153.265 208.287Z" fill="url(#paint1_linear_13_9)"/>
<path opacity="0.32" d="M55.084 197.609C63.4375 192.047 71.9331 186.688 80.3779 181.278L68.3806 172.518L21.9138 191.905C27.5268 194.848 35.1088 200.36 43.0867 205.973C47.0554 203.141 51.024 200.309 55.084 197.609Z" fill="url(#paint2_linear_13_9)"/>
<path d="M84.9352 150.219C84.8662 149.932 84.7383 149.662 84.5597 149.427C84.2318 149.028 83.841 148.685 83.4026 148.412C77.5054 144.423 69.3347 143.337 63.1026 147.225C61.6816 148.118 59.5602 150.138 60.4027 152.046C60.8899 153.152 62.3718 153.802 63.4477 154.248C66.869 155.616 70.4446 156.56 74.095 157.06C75.4145 157.283 76.7543 157.507 78.084 157.628C79.0038 157.717 79.9312 157.573 80.7807 157.209C81.6303 156.846 82.3748 156.274 82.9458 155.548C83.8695 154.34 85.3514 151.985 84.9352 150.219Z" fill="#754C24"/>
<path d="M60.2301 151.173C60.2301 151.173 65.6096 156.045 74.907 155.335C84.2044 154.624 84.9251 150.26 84.9251 150.26C84.9251 150.26 82.5195 181.075 81.2508 181.603C79.982 182.131 75.2318 184.424 72.9379 184.597C70.644 184.77 63.3969 181.867 63.2142 181.065C63.0315 180.263 60.2301 151.173 60.2301 151.173Z" fill="#FF8F6F"/>
<path d="M61.915 106.31C61.6308 105.731 60.7478 106.239 61.0421 106.817C67.4062 119.647 68.6445 134.091 69.7914 148.118C69.8422 148.757 70.8572 148.767 70.8064 148.118C69.6595 133.857 68.3806 119.261 61.915 106.31Z" fill="#007F68"/>
<path d="M61.1132 106.391C61.1132 106.391 62.8894 113.05 61.0523 116.379C59.2151 119.708 57.7028 120.368 59.8952 124.499C62.0876 128.63 67.9543 129.188 68.34 132.355C68.7257 135.522 65.5386 112.045 61.1132 106.391Z" fill="#007F68"/>
<path d="M81.4639 118.409C76.5625 128.659 73.7997 139.8 73.3439 151.153C73.3439 151.944 74.5518 151.934 74.5822 151.153C75.0125 140.016 77.7026 129.083 82.489 119.018C82.8747 118.317 81.809 117.688 81.4639 118.409Z" fill="#007F68"/>
<path d="M82.3368 121.647C82.3368 120.977 82.1845 119.617 82.2556 118.49L81.5451 118.937C79.1294 124.813 75.516 138.617 74.4401 142.84C75.9118 139.673 81.9308 139.237 83.6969 134.72C84.4763 132.803 84.5125 130.664 83.7984 128.721C82.9273 126.459 82.4335 124.069 82.3368 121.647V121.647Z" fill="#007F68"/>
<path opacity="0.32" d="M217.809 236.352C234.171 227.542 272.893 208.064 289.133 199.051L195.672 140.576L128.235 186.363C145.348 195.315 194.129 221.705 217.809 236.352Z" fill="url(#paint3_linear_13_9)"/>
<path d="M138.933 137.775C139.004 159.425 139.126 178.913 139.126 178.913C139.126 178.913 139.583 180.679 142.841 179.238V136.476C141.542 136.912 140.243 137.328 138.933 137.775Z" fill="#5B434D"/>
<path d="M229.461 190.393C229.532 212.043 229.654 231.531 229.654 231.531C229.654 231.531 230.111 233.297 233.369 231.855V189.134C232.07 189.54 230.77 189.987 229.461 190.393Z" fill="#5B434D"/>
<path d="M285.215 157.588C285.286 179.238 285.408 198.726 285.408 198.726C285.408 198.726 285.865 200.492 289.123 199.051V156.329C287.834 156.756 286.534 157.182 285.215 157.588Z" fill="#5B434D"/>
<path d="M138.172 136.476V140.16L231.593 194.209L289.042 156.481L289.133 152.361" fill="#A5DD73"/>
<path opacity="0.76" d="M138.172 136.476V140.16L231.593 194.209L289.042 156.481L289.133 152.361" fill="#6DB720"/>
<path d="M138.172 136.476L198.28 102.189L289.133 152.361L231.268 190.514L138.172 136.476Z" fill="#A5DD73"/>
<path d="M221.585 118.632L208.928 124.722C208.45 124.951 208.044 125.306 207.753 125.749C207.462 126.191 207.297 126.705 207.276 127.234C207.255 127.763 207.379 128.288 207.634 128.752C207.89 129.216 208.267 129.602 208.725 129.868L238.738 147.377C239.387 147.755 240.157 147.868 240.887 147.692C241.617 147.516 242.251 147.065 242.656 146.433L249.944 135.095" fill="#56403D"/>
<path d="M285.215 86.1826L181.817 26.6325C181.305 26.3286 180.722 26.1661 180.126 26.1617C179.531 26.1572 178.945 26.3111 178.429 26.6074C177.913 26.9038 177.484 27.332 177.188 27.8483C176.892 28.3645 176.738 28.9503 176.742 29.5456V92.8105C176.743 93.2654 176.864 93.712 177.092 94.1057C177.32 94.4993 177.647 94.8262 178.041 95.0537L288.057 158.562C288.247 158.673 288.464 158.732 288.684 158.732C288.904 158.733 289.121 158.675 289.311 158.565C289.502 158.454 289.66 158.296 289.77 158.104C289.879 157.913 289.936 157.696 289.935 157.476V94.465C289.941 92.7922 289.509 91.147 288.681 89.6936C287.852 88.2402 286.657 87.0296 285.215 86.1826V86.1826Z" fill="#68E1FD"/>
<path d="M183.613 32.215L281.52 88.5475C282.566 89.1489 283.435 90.0154 284.039 91.0597C284.643 92.1039 284.961 93.289 284.961 94.4954V139.866C284.962 140.301 284.849 140.729 284.632 141.107C284.415 141.484 284.103 141.798 283.726 142.016C283.349 142.234 282.922 142.349 282.486 142.349C282.051 142.35 281.623 142.235 281.246 142.018L181.401 84.7311C181.028 84.5168 180.717 84.2078 180.502 83.8353C180.286 83.4629 180.173 83.0401 180.173 82.6097V34.245C180.168 33.8398 180.27 33.4406 180.469 33.0877C180.668 32.7347 180.957 32.4404 181.306 32.2345C181.655 32.0287 182.052 31.9184 182.457 31.915C182.862 31.9116 183.261 32.015 183.613 32.215V32.215Z" fill="#200A52"/>
<path d="M225.852 117.613C226.43 117.501 226.897 117.407 226.896 117.401C226.895 117.396 226.426 117.481 225.848 117.593C225.27 117.704 224.802 117.799 224.803 117.804C224.804 117.81 225.274 117.724 225.852 117.613Z" fill="#AB643C"/>
<path d="M277.531 91.1155C278.12 91.1155 278.597 90.5974 278.597 89.9584C278.597 89.3193 278.12 88.8013 277.531 88.8013C276.943 88.8013 276.466 89.3193 276.466 89.9584C276.466 90.5974 276.943 91.1155 277.531 91.1155Z" fill="#659FE4"/>
<path d="M274.131 89.4204C274.72 89.4204 275.197 88.9023 275.197 88.2633C275.197 87.6243 274.72 87.1062 274.131 87.1062C273.543 87.1062 273.065 87.6243 273.065 88.2633C273.065 88.9023 273.543 89.4204 274.131 89.4204Z" fill="#C5E9FF"/>
<path d="M185.664 44.7502L245.701 78.8644" stroke="#00A99D" stroke-width="4.06" stroke-miterlimit="10"/>
<path d="M185.877 53.6721L195.601 59.1937" stroke="#D4145A" stroke-width="4.06" stroke-miterlimit="10"/>
<path d="M198.473 61.0613L252.512 90.7703" stroke="#29ABE2" stroke-width="4.06" stroke-miterlimit="10"/>
<path d="M185.664 61.8124L206.41 73.2514" stroke="#F7931E" stroke-width="4.06" stroke-miterlimit="10"/>
<path d="M209.851 75.4236L255.354 99.7633" stroke="#00A99D" stroke-width="4.06" stroke-miterlimit="10"/>
<path d="M321.329 82.5996V126.245C321.33 127.105 321.104 127.951 320.672 128.696C320.239 129.44 319.617 130.056 318.869 130.482C318.121 130.907 317.273 131.126 316.412 131.116C315.551 131.107 314.709 130.868 313.97 130.426L272.446 105.66C271.722 105.229 271.122 104.617 270.705 103.884C270.289 103.151 270.07 102.322 270.071 101.479V58.605C270.07 57.7507 270.295 56.9112 270.722 56.1712C271.148 55.4311 271.763 54.8166 272.503 54.3895C273.243 53.9625 274.082 53.7379 274.936 53.7385C275.791 53.739 276.63 53.9647 277.369 54.3928L318.893 78.3671C319.636 78.795 320.253 79.4119 320.681 80.1553C321.109 80.8986 321.332 81.7419 321.329 82.5996V82.5996Z" fill="#A5DD73"/>
<path d="M291.691 77.6667L278.232 87.5629L290.3 104.503" stroke="#006837" stroke-width="4.06" stroke-miterlimit="10"/>
<path d="M303.597 84.8123L313.503 104.158L299.577 110.654" stroke="#006837" stroke-width="4.06" stroke-miterlimit="10"/>
<path d="M186.527 124.803L164.714 137.268C164.487 137.4 164.298 137.589 164.166 137.817C164.035 138.045 163.966 138.304 163.966 138.567C163.966 138.83 164.035 139.088 164.166 139.316C164.298 139.544 164.487 139.734 164.714 139.866L225.33 174.711C226.065 175.134 226.898 175.357 227.746 175.357C228.594 175.357 229.427 175.134 230.161 174.711L250.573 162.927C250.811 162.79 251.009 162.592 251.147 162.354C251.284 162.117 251.357 161.847 251.357 161.572C251.357 161.297 251.284 161.027 251.147 160.789C251.009 160.551 250.811 160.354 250.573 160.217L189.267 124.803C188.851 124.56 188.378 124.431 187.897 124.431C187.415 124.431 186.942 124.56 186.527 124.803V124.803Z" fill="#200A52"/>
<path d="M219.484 144.677L213.262 148.372L217.88 151.051L224.132 147.377L219.484 144.677Z" fill="white"/>
<path d="M212.663 140.708L206.441 144.403L212.297 147.803L218.55 144.129L212.663 140.708Z" fill="white"/>
<path d="M187.877 126.316L181.553 129.949L187.176 133.218L193.429 129.543L187.877 126.316Z" fill="white"/>
<path d="M201.203 134.06L194.982 137.775L199.6 140.455L205.852 136.78L201.203 134.06Z" fill="white"/>
<path d="M194.383 130.091L188.161 133.786L194.007 137.186C194.697 136.79 198.615 134.476 200.26 133.512L194.383 130.091Z" fill="white"/>
<path d="M225.076 147.925L218.854 151.62L223.28 154.188L229.522 150.513L225.076 147.925Z" fill="white"/>
<path d="M206.796 137.308L200.574 141.003L205.466 143.845L211.719 140.17L206.796 137.308Z" fill="white"/>
<path d="M230.476 151.051L224.254 154.746L230.111 158.146L236.363 154.472L230.476 151.051Z" fill="white"/>
<path d="M237.297 155.02L231.065 158.704L241.57 164.804L247.893 161.171L237.297 155.02Z" fill="white"/>
<path d="M180.751 131.025L174.428 134.659L182.609 139.409L188.861 135.735L180.751 131.025Z" fill="white"/>
<path d="M196.626 140.241L190.404 143.936L195.022 146.616L201.274 142.941L196.626 140.241Z" fill="white"/>
<path d="M208.075 146.91L201.853 150.605L207.71 154.005L213.962 150.331L208.075 146.91Z" fill="white"/>
<path d="M202.218 143.489L195.997 147.184L200.889 150.026L207.141 146.352L202.218 143.489Z" fill="white"/>
<path d="M214.906 150.858L208.684 154.553L213.302 157.233L219.545 153.558L214.906 150.858Z" fill="white"/>
<path d="M220.499 154.106L214.277 157.801L218.702 160.369L224.944 156.695L220.499 154.106Z" fill="white"/>
<path d="M189.805 136.283L183.583 139.978L189.429 143.378L195.682 139.704L189.805 136.283Z" fill="white"/>
<path d="M225.888 157.243L219.666 160.937L225.523 164.338L231.765 160.663L225.888 157.243Z" fill="white"/>
<path d="M226.487 164.896L234.435 169.514L240.768 165.88L232.709 161.201L226.487 164.896Z" fill="white"/>
<path d="M221.828 164.256L217.2 167.017L222.569 170.123L227.269 167.423L221.828 164.256Z" fill="white"/>
<path d="M223.686 170.773L228.253 173.412L232.963 170.722L228.304 168.022L223.686 170.773Z" fill="white"/>
<path d="M172.946 135.867L168.094 138.567L173.595 141.744L178.356 139.013L172.946 135.867Z" fill="white"/>
<path d="M179.381 139.612L174.702 142.393L180.579 145.794L185.329 143.063L179.381 139.612Z" fill="white"/>
<path d="M186.364 143.662L181.695 146.443L216.083 166.368L220.793 163.657L186.364 143.662Z" fill="white"/>
<path d="M344.785 205.831C355.341 205.831 363.898 201.6 363.898 196.381C363.898 191.162 355.341 186.931 344.785 186.931C334.23 186.931 325.673 191.162 325.673 196.381C325.673 201.6 334.23 205.831 344.785 205.831Z" fill="#68E1FD"/>
<path d="M363.908 171.209V196.909C363.908 196.909 349.698 210.104 325.673 197.122V171.209" fill="#68E1FD"/>
<path opacity="0.21" d="M348.987 196.127C343.709 200.187 337.335 202.116 330.799 202.806C335.154 204.913 339.948 205.956 344.785 205.851C354.935 205.851 363.228 201.933 363.837 196.98L363.898 196.929V171.209H363.543C360.325 180.405 356.935 189.956 348.987 196.127Z" fill="#200A52"/>
<path d="M328.535 180.405C328.535 180.405 325.368 175.563 322.384 178.375C319.4 181.187 322.009 190.86 330.768 191.793V195.63C330.768 195.63 319.776 194.138 318.284 184.262C316.792 174.386 323.876 172.864 327.419 175.584" fill="#68E1FD"/>
<path d="M344.785 180.76C355.341 180.76 363.898 176.53 363.898 171.311C363.898 166.092 355.341 161.861 344.785 161.861C334.23 161.861 325.673 166.092 325.673 171.311C325.673 176.53 334.23 180.76 344.785 180.76Z" fill="#663535"/>
<path d="M164.907 171.27C160.197 167.981 154.656 166.195 148.667 167.494C142.293 168.895 136.771 172.904 130.275 173.889C129.26 174.041 125.149 173.777 124.52 174.376C106.443 191.489 157 189.652 157 189.652C161.903 185.592 166.521 181.684 171.393 177.624C169.911 174.376 167.475 173.077 164.907 171.27Z" fill="#F8997C"/>
<path d="M141.085 196.117L139.288 247.74C139.217 249.699 142.262 249.699 142.333 247.74L144.13 196.117C144.231 194.158 141.197 194.168 141.085 196.117Z" fill="#F8997C"/>
<path d="M179.016 223.735C169.813 214.729 161.016 205.33 152.626 195.539C151.347 194.047 149.205 196.209 150.474 197.69C158.851 207.475 167.648 216.874 176.864 225.887C178.264 227.257 180.426 225.065 179.016 223.735Z" fill="#F8997C"/>
<path d="M130.57 191.347C123.424 204.833 116.695 218.525 110.381 232.424C109.579 234.19 112.198 235.743 113.01 233.956C119.323 220.058 126.053 206.365 133.198 192.879C134.112 191.154 131.493 189.611 130.57 191.347Z" fill="#F8997C"/>
<path d="M166.166 136.76C166.785 136.608 171.992 135.268 173.271 134.842C174.55 134.415 178.508 131.34 180.66 131.797C182.812 132.253 187.146 135.106 187.349 136.06C187.552 137.014 186.334 138.171 185.877 138.587C185.42 139.003 182.284 137.856 181.066 137.663C179.848 137.471 177.909 140.353 176.762 140.861C175.615 141.368 168.206 142.698 168.206 142.698" fill="#FCBF81"/>
<path d="M180.163 149.407C180.782 149.255 185.989 147.915 187.268 147.489C188.546 147.062 192.505 143.987 194.657 144.444C196.809 144.9 201.143 147.752 201.346 148.707C201.549 149.661 200.331 150.818 199.874 151.234C199.417 151.65 196.281 150.503 195.063 150.31C193.845 150.117 191.906 153 190.759 153.508C189.612 154.015 182.203 155.345 182.203 155.345" fill="#FCBF81"/>
<path d="M178.143 215.006C179.087 213.991 179.706 212.976 179.381 211.911C178.802 210.013 176.224 209.241 174.458 209.343C172.692 209.444 170.865 210.358 169.079 210.865C167.211 211.536 165.217 211.782 163.242 211.586C162.925 211.539 162.635 211.376 162.43 211.129C161.883 211.008 161.377 210.745 160.962 210.368C160.547 209.99 160.238 209.511 160.065 208.977L154.219 206.886C154.219 206.886 152.727 219.239 152.778 220.081C153.214 226.75 163.171 222.944 163.171 222.944C163.171 222.944 163.527 219.899 163.618 219.523C163.709 219.148 167.526 220.305 169.099 220.061C169.823 219.859 170.508 219.54 171.129 219.117C172.306 218.468 173.463 217.777 174.61 217.087C175.757 216.397 176.955 215.717 178.143 215.006Z" fill="#56403D"/>
<path d="M156.31 169.413C154.118 169.626 151.925 169.91 149.743 170.225C150.65 184.252 151.665 198.269 152.788 212.276C158.472 214.6 160.776 213.524 164.298 209.921C164.968 196.554 166.135 182.516 166.105 169.037C162.857 169.179 159.588 169.321 156.31 169.413Z" fill="#34323D"/>
<path d="M132.691 165.566C132.691 165.566 131.747 180.923 139.461 184.343C147.175 187.764 162.999 186.059 170.784 181.491C174.809 179.04 179.032 176.931 183.411 175.188C183.411 175.188 185.441 168.469 180.558 165.566C175.676 162.663 164.978 159.07 155.457 165.566" fill="#34323D"/>
<path d="M172.022 142.576C172.844 139.44 172.367 134.263 172.367 134.263C172.367 134.263 162.735 135.907 158.675 135.278C154.615 134.649 147.977 126.143 147.977 126.143L148.88 142.992C156.574 144.606 164.542 144.951 172.022 142.576Z" fill="#BA3E00"/>
<path d="M195.956 224.629C196.9 223.614 197.519 222.599 197.194 221.533C196.616 219.635 194.038 218.863 192.271 218.965C190.505 219.066 188.678 219.98 186.892 220.487C185.024 221.158 183.03 221.404 181.056 221.208C180.738 221.161 180.449 220.999 180.244 220.751C179.696 220.63 179.19 220.367 178.775 219.99C178.36 219.612 178.051 219.133 177.879 218.599L172.032 216.509C172.032 216.509 170.54 228.861 170.591 229.704C171.027 236.372 180.985 232.566 180.985 232.566C180.985 232.566 181.34 229.521 181.431 229.145C181.523 228.77 185.339 229.927 186.912 229.683C187.636 229.481 188.321 229.162 188.942 228.739C190.12 228.09 191.277 227.399 192.424 226.709C193.571 226.019 194.778 225.339 195.956 224.629Z" fill="#56403D"/>
<path d="M173.463 165.941C171.433 164.987 169.343 165.089 166.927 165.099C167.262 170.042 167.079 171.818 167.384 176.751L167.465 178.06C168.399 192.676 169.495 207.282 170.611 221.888C176.295 224.212 178.599 223.137 182.121 219.533C182.903 203.973 184.375 187.551 183.806 172.062C180.528 168.814 177.625 167.89 173.463 165.941Z" fill="#34323D"/>
<path d="M132.559 162.389C132.559 162.764 132.63 164.033 132.691 165.566C135.888 169.778 139.796 172.244 145.886 172.062C150.849 171.92 155.021 169.747 158.878 167.068C158.391 158.085 156.939 142.708 154.676 132.02C154.483 131.117 152.138 130.508 151.448 130.132C149.834 129.249 150.778 127.726 149.195 126.783C146.898 125.445 144.507 124.278 142.039 123.291H141.978C138.03 123.23 131.219 126.275 130.813 131.563C130.194 139.683 131.087 144.606 131.717 152.716C131.95 155.984 132.285 159.212 132.559 162.389Z" fill="#E55600"/>
<path d="M146.312 107.893C146.83 108.025 151.215 118.114 149.499 124.245C147.784 130.376 137.37 124.073 134.751 119.404C132.133 114.735 136.467 105.295 146.312 107.893Z" fill="#FCBF81"/>
<path d="M146.16 109.304C146.16 109.304 146.16 112.633 143.247 113.709C140.334 114.785 137.908 115.506 138.07 116.856C138.233 118.206 143.338 116.663 143.359 119.749C143.36 121.827 143.08 123.896 142.526 125.9C142.201 127.412 133.462 122.773 130.58 114.877C127.697 106.98 134.914 104.879 135.269 104.828C135.624 104.777 136.284 102.626 139.806 101.854C143.328 101.083 144.343 102.463 144.343 102.463C145.147 101.979 146.087 101.771 147.02 101.872C147.953 101.973 148.828 102.377 149.509 103.021C152.768 105.61 151.945 110.34 148.251 112.258L146.16 109.304Z" fill="#34323D"/>
<path d="M186.354 146.91C181.817 147.854 172.601 149.356 169.343 147.925C166.815 146.819 158.381 128.731 149.215 126.793L147.977 140.597C147.977 140.597 160.938 157.04 166.927 158.735C171.281 159.963 183.004 158.319 188.151 156.532C188.373 153.225 187.755 149.914 186.354 146.91V146.91Z" fill="#E55600"/>
<path d="M157.64 151.163C156.98 150.31 149.469 141.805 149.469 141.805L158.492 160.288L157.64 151.163Z" fill="#34323D"/>
<path d="M170.682 177.36C167.863 181.29 163.868 184.222 159.274 185.734C152.839 187.693 143.48 186.749 140.1 180.04C133.95 167.799 139.725 152.472 133.229 140.566C132.479 139.061 131.419 137.732 130.12 136.665C128.82 135.598 127.31 134.817 125.687 134.375C121.475 133.451 118.582 136.618 117.06 140.343C114.319 147.022 114.421 155.335 114.553 162.45C114.56 168.197 114.977 173.936 115.801 179.623C115.801 179.623 119.74 203.486 150.433 197.081C155.749 196.118 160.854 194.228 165.516 191.499C167.905 190.121 169.996 188.282 171.667 186.089C173.565 183.328 172.296 180.09 170.682 177.36Z" fill="#68E1FD"/>
<defs>
<linearGradient id="paint0_linear_13_9" x1="315.695" y1="212.174" x2="337.396" y2="192.138" gradientUnits="userSpaceOnUse">
<stop stop-color="#E75D48"/>
<stop offset="1" stop-color="#502019"/>
</linearGradient>
<linearGradient id="paint1_linear_13_9" x1="12614.1" y1="12171.2" x2="13777" y2="10248.2" gradientUnits="userSpaceOnUse">
<stop stop-color="#E75D48"/>
<stop offset="1" stop-color="#502019"/>
</linearGradient>
<linearGradient id="paint2_linear_13_9" x1="2641.1" y1="6448.57" x2="3402.84" y2="5375.48" gradientUnits="userSpaceOnUse">
<stop stop-color="#E75D48"/>
<stop offset="1" stop-color="#502019"/>
</linearGradient>
<linearGradient id="paint3_linear_13_9" x1="30687.6" y1="20254.4" x2="32792.5" y2="15539.1" gradientUnits="userSpaceOnUse">
<stop stop-color="#E75D48"/>
<stop offset="1" stop-color="#502019"/>
</linearGradient>
</defs>
</svg>
